<svg xmlns="http://www.w3.org/2000/svg" xmlns:xlink="http://www.w3.org/1999/xlink" version="1.1" x="0px" y="0px" viewBox="0 0 100 100" enable-background="new 0 0 100 100" xml:space="preserve"><path fill="none" stroke="#000000" stroke-width="2" stroke-linecap="round" stroke-linejoin="round" stroke-miterlimit="10" d="  M61.994,39.778c-3.491-4.996-9.285-8.263-15.841-8.263c-10.666,0-19.312,8.647-19.312,19.312c0,6.284,3.001,11.866,7.648,15.393"/><path fill="none" stroke="#000000" stroke-width="2" stroke-linecap="round" stroke-linejoin="round" stroke-miterlimit="10" d="  M39.193,68.848c2.159,0.835,4.506,1.292,6.96,1.292c10.666,0,19.312-8.647,19.312-19.313c0-2.263-0.389-4.436-1.105-6.454"/><path fill="none" stroke="#000000" stroke-width="2" stroke-linecap="round" stroke-linejoin="round" stroke-miterlimit="10" d="  M53.935,33.151c4.207-2.259,7.577-2.905,9.084-1.398c2.962,2.962-2.394,13.119-11.963,22.688S31.33,69.365,28.368,66.404  c-1.262-1.262-1.014-3.83,0.426-7.102"/><path fill="none" stroke="#000000" stroke-width="2" stroke-linecap="round" stroke-linejoin="round" stroke-miterlimit="10" d="  M50.738,32.064c10.023-7.794,18.708-11.509,21.596-8.621c3.928,3.928-4.365,18.59-18.523,32.749S24.99,78.642,21.062,74.714  c-2.606-2.606,0.167-9.937,6.464-18.712"/><path fill="none" stroke="#000000" stroke-linecap="round" stroke-linejoin="round" stroke-miterlimit="10" d="M54.806,28.943  c13.297-10.34,24.82-15.268,28.651-11.438c5.211,5.211-5.791,24.663-24.575,43.447S20.646,90.739,15.435,85.527  c-3.458-3.458,0.222-13.184,8.576-24.824"/><path fill="none" stroke="#000000" stroke-width="0.8699" stroke-linecap="round" stroke-linejoin="round" stroke-miterlimit="10" d="  M52.756,30.861c11.567-8.995,21.592-13.283,24.924-9.95c4.534,4.534-5.038,21.456-21.378,37.796S23.039,84.619,18.505,80.085  c-3.008-3.008,0.193-11.469,7.46-21.596"/><circle stroke="#000000" stroke-miterlimit="10" cx="78.805" cy="26.849" r="2.305"/><circle stroke="#000000" stroke-miterlimit="10" cx="29.146" cy="83.516" r="2.305"/></svg>